<?xml version="1.0" encoding="UTF-8"?>
<svg width="150px" height="150px" viewBox="0 0 150 150" version="1.1" xmlns="http://www.w3.org/2000/svg" xmlns:xlink="http://www.w3.org/1999/xlink">
    <!-- Generator: Sketch 47.1 (45422) - http://www.bohemiancoding.com/sketch -->
    <title>esportrat_logo_icon</title>
    <desc>Created with Sketch.</desc>
    <defs>
        <filter x="-4.4%" y="-4.1%" width="109.6%" height="112.1%" filterUnits="objectBoundingBox" id="filter-1">
            <feOffset dx="0" dy="2" in="SourceAlpha" result="shadowOffsetOuter1"></feOffset>
            <feGaussianBlur stdDeviation="2" in="shadowOffsetOuter1" result="shadowBlurOuter1"></feGaussianBlur>
            <feColorMatrix values="0 0 0 0 0   0 0 0 0 0   0 0 0 0 0  0 0 0 0.5 0" type="matrix" in="shadowBlurOuter1" result="shadowMatrixOuter1"></feColorMatrix>
            <feMerge>
                <feMergeNode in="shadowMatrixOuter1"></feMergeNode>
                <feMergeNode in="SourceGraphic"></feMergeNode>
            </feMerge>
        </filter>
        <linearGradient x1="50%" y1="0%" x2="50%" y2="100%" id="linearGradient-2">
            <stop stop-color="#D50000" stop-opacity="0.7" offset="0%"></stop>
            <stop stop-color="#D50000" offset="100%"></stop>
        </linearGradient>
        <linearGradient x1="50%" y1="0%" x2="50%" y2="100%" id="linearGradient-3">
            <stop stop-color="#424242" offset="0%"></stop>
            <stop stop-color="#424242" stop-opacity="0.85" offset="100%"></stop>
        </linearGradient>
        <linearGradient x1="70.0729442%" y1="220.53615%" x2="60.7950357%" y2="-158.146253%" id="linearGradient-4">
            <stop stop-color="#FFFFFF" offset="0%"></stop>
            <stop stop-color="#1C1C1C" offset="100%"></stop>
        </linearGradient>
        <linearGradient x1="50%" y1="0%" x2="50%" y2="100%" id="linearGradient-5">
            <stop stop-color="#FFFFFF" stop-opacity="0.5" offset="0%"></stop>
            <stop stop-color="#000000" stop-opacity="0.5" offset="100%"></stop>
        </linearGradient>
        <path d="M17.4937396,14.4193893 C18.4943506,14.8951575 18.5761922,14.7550704 17.6812707,14.0998285 C17.6812707,14.0998285 16.1593513,13.0370149 15.0605486,12.0543507 C13.9617459,11.0716866 13.6009023,11.2821059 13.6009023,11.2821059 C12.4432173,11.029863 10.5987717,11.1673635 9.94731018,11.4132796 L10.8891954,11.0577334 C10.3690065,11.2540961 10.3730553,11.53861 10.8968371,11.6974161 C10.8968371,11.6974161 13.0816001,12.313386 14.4566637,12.9718129 C15.8317273,13.6302397 17.4937396,14.4193893 17.4937396,14.4193893 Z" id="path-6"></path>
        <path d="M105.983126,67.9279395 C106.515623,67.8024715 106.562329,67.4771629 106.086133,67.1990489 C106.086133,67.1990489 101.721598,64.6805825 99.6497797,63.2328791 C97.5779609,61.7851757 94.3137421,58.8702683 94.3137421,58.8702683 C93.9007937,58.5066806 93.1091786,58.2273221 92.5623388,58.2457405 L88.4915086,58.382852 C87.9371836,58.4015225 87.9192886,58.5573795 88.4446428,58.7287193 L89.8402569,59.1838869 L90.3884018,60.21236 L91.4386186,60.5548792 C91.9667115,60.7271122 92.629879,61.2452326 92.9225444,61.7164805 L93.1926572,62.1514145 L95.4321432,62.6606014 L96.6247566,64.0177541 L98.3765752,64.4983672 L99.5562584,65.515179 L101.646302,66.1968288 L103.513421,67.3823254 L100.996882,66.5615776 L98.4041699,65.4083775 L96.947349,64.9332478 L94.7892219,63.3283826 L93.0005091,62.7450093 L91.7431785,61.4574771 L89.7845292,60.8186804 L88.373107,59.5550889 L85.1353296,59.1140531 C84.5876832,59.0394551 83.6953538,58.9981304 83.1517146,59.0213478 L81.7060341,59.083089 C81.1581602,59.1064873 81.1342626,59.2951595 81.6472436,59.5023139 L102.857685,68.0676152 C103.37309,68.2757485 104.229791,68.3410635 104.75508,68.2172939 L105.983126,67.9279395 Z" id="path-7"></path>
        <polygon id="path-8" points="3.52377804 2.91962281 7.58428238 0.957857839 8.79598909 1.07395053 4.64001465 2.88620096"></polygon>
        <polygon id="path-9" points="0.0650829854 2.4491574 4.24148989 0.030944197 6.84647888 0.436838362 2.88445184 2.49919852"></polygon>
    </defs>
    <g id="Брендинг-основное" stroke="none" stroke-width="1" fill="none" fill-rule="evenodd">
        <g id="esportrat_logo_icon">
            <g id="лого/Esportrat_logo" transform="translate(0.000000, 17.000000)">
                <g id="ОРИГИНАЛ-ЛОГОТИПА-КРЫСЫ" filter="url(#filter-1)" transform="translate(-5.478589, 0.000000)">
                    <g id="фон-треугольник" transform="translate(65.816869, 58.511852) rotate(-180.000000) translate(-65.816869, -58.511852) translate(6.969262, 0.011852)">
                        <path d="M0.172246334,16.0370831 C18.1133849,7.20006059 37.4721278,0.100739465 58.8872968,0.100739465 C80.378662,0.100739465 99.7374049,7.20006059 117.678544,16.0370831 C110.46849,28.3543749 58.9634932,116.911112 58.9634932,116.911112 C58.8872968,116.911112 7.38229955,28.3543749 0.172246334,16.0370831 Z" id="обводка-path" fill="#000000"></path>
                        <path d="M105.192647,21.8514866 C91.0572047,14.893766 75.8048618,9.3042031 58.9323045,9.3042031 C42.0111633,9.3042031 26.7588202,14.893766 12.6233778,21.8514866 C18.3040258,31.5493544 58.8837206,101.273409 58.8837206,101.273409 C58.9323045,101.273409 99.5119993,31.5493544 105.192647,21.8514866 Z" id="обводка-path" fill="url(#linearGradient-2)"></path>
                    </g>
                    <g id="сама-крыса" transform="translate(79.390570, 63.573826) rotate(-378.000000) translate(-79.390570, -63.573826) translate(8.263366, 26.027634)">
                        <path d="M60.4728237,73.6688275 C60.4728237,73.6688275 64.2748136,74.294563 67.2706813,74.4664372 C70.266549,74.6383115 81.9445626,74.4320351 86.3120225,73.0453446 C90.0534097,71.8574354 104.164081,69.7661603 104.164081,69.7661603 L109.416996,68.1675835 L104.662718,71.6217184 L111.300186,72.4195108 L119.549175,69.9102979 L128.381397,68.5560508 C128.381397,68.5560508 134.181234,67.960979 136.735188,67.191469 C139.289143,66.421959 142.140908,64.696792 142.140908,64.696792 C142.140908,64.696792 138.135692,63.4207297 135.417108,61.5367593 C133.761937,60.3897306 130.212808,57.1859741 127.090305,55.0066892 C123.967802,52.8274043 119.23741,52.4455347 119.23741,52.4455347 L119.23741,52.4455347 C120.918665,52.0272255 121.133596,50.3148031 119.69903,48.628343 C119.69903,48.628343 106.350342,32.3261972 96.6961894,25.8257516 C87.042037,19.3253061 69.28429,10.3135562 57.5981617,5.59149419 C45.9120333,0.869432192 24.7921031,0.232950835 24.7921031,0.232950835 C23.1334014,0.155405522 23.0878035,0.434369631 24.6896478,0.872922073 C24.6896478,0.872922073 28.4141641,1.78217553 31.6884129,3.12184443 C34.9626616,4.46151333 45.8587574,9.24555852 45.8587574,9.24555852 C45.8587574,9.24555852 28.7455157,6.02382504 19.0447161,6.13931107 C9.34391653,6.25479709 3.02073552,7.57890989 3.02073552,7.57890989 C3.02073552,7.57890989 18.0093516,13.0708506 23.9228245,19.6092496 C29.8362974,26.1476486 5.34564227,37.1414511 0.596810274,49.2315566 C-4.15202173,61.3216621 33.9850666,80.8869464 33.4748301,73.2950142 C32.9645937,65.7030821 50.6608061,56.9356351 50.6608061,56.9356351 C50.6608061,56.9356351 46.7833694,61.8016292 49.7520796,64.1108875 C51.1016769,65.1606931 57.0253027,65.061987 62.1583045,65.6776185 C67.2913063,66.2932499 64.3744509,65.9714966 64.3744509,65.9714966 C70.915616,67.062068 71.5683767,70.5883988 70.6606901,70.9300518 C70.6606901,70.9300518 74.5764313,69.5371618 70.6606901,70.9300518 C66.7449489,72.3229417 60.4728237,73.6688275 60.4728237,73.6688275 Z" id="Path-6" fill="#000000"></path>
                        <path d="M33.0088228,67.7050573 C44.7684939,55.643058 54.1358491,52.594284 54.1358491,52.594284 C62.5129724,48.3664634 63.1511285,49.4034058 55.9249007,55.4102658 C55.9249007,55.4102658 42.4286855,63.236226 54.566643,63.236226 C60.080645,63.236226 69.7127845,64.7694028 74.1727318,65.6424622 C78.6326791,66.5155216 74.1727318,65.6424622 74.1727318,65.6424622 C78.7141073,67.4039391 78.1954625,70.3661512 74.8065936,71.4535582 C74.8065936,71.4535582 76.9636855,70.8983295 74.8065936,71.4535582 C72.6495016,72.0087868 65.379898,73.626628 65.379898,73.626628 C65.379898,73.626628 74.6843945,73.4444725 77.883529,73.0614923 C81.0826635,72.678512 98.6226273,68.9622161 98.6226273,68.9622161 C98.6226273,68.9622161 87.0081595,64.7743721 82.7661988,63.1236918 C78.5242382,61.4730115 75.0654851,57.3650616 75.0654851,57.3650616 L84.5016279,56.6193804 C86.154548,56.4887601 88.8346753,56.312878 90.4955243,56.2261364 L91.6185528,56.1674836 C93.2759703,56.0809212 95.6291035,56.8915919 96.891143,57.9719382 C96.891143,57.9719382 99.5458468,60.3709476 102.229123,62.1757987 C104.912398,63.9806499 112.027919,65.3715923 112.027919,65.3715923 L112.027919,65.3715923 C118.169196,66.8292144 134.61499,64.2001125 134.905638,64.1035264 L134.905638,64.1035264 L134.905638,64.1035264 C131.564659,62.2064496 122.066209,54.8838498 122.066209,54.8838498 C122.066209,54.8838498 123.369439,55.8814968 122.066209,54.8838498 C120.693882,53.8333081 114.775191,53.3512954 111.281162,53.095693 C107.787134,52.8400906 102.120366,51.9488821 102.120366,51.9488821 L117.415056,51.2441324 C118.520135,51.1932125 118.828535,50.4767929 118.093829,49.6525324 C118.093829,49.6525324 99.3533262,27.5324595 80.3638564,21.3392065 C61.3743865,15.1459535 53.7864713,14.038305 44.048387,11.7120025 C34.3103026,9.38569991 26.963361,8.72165538 22.3756114,8.33190127 C17.7878619,7.94214716 11.8898582,8.31262128 11.8898582,8.31262128 C11.3462193,8.34147131 11.2896078,8.57609156 11.774777,8.84441969 C11.774777,8.84441969 21.6078279,14.2194267 23.8049073,16.1906171 C24.9068861,17.1792978 29.5480668,20.1819705 30.8189244,22.2567631 C32.089782,24.3315557 37.8842224,27.1108305 41.4096456,28.5784024 C44.9350687,30.0459744 18.1890099,45.9691899 18.1890099,45.9691899 C17.7184166,46.2517415 17.7742719,46.5296783 18.3275133,46.5915154 L23.4181483,47.1605085 C23.4181483,47.1605085 21.9271699,48.1593189 16.1981961,48.6144352 C10.4692223,49.0695515 6.32525163,50.9478723 6.32525163,50.9478723 C5.81659364,51.1547633 5.66615747,51.6787509 6.02457603,52.1013444 C6.02457603,52.1013444 7.0372474,54.0381908 16.1555215,60.2660775 C25.2737956,66.4939642 31.1915312,69.5283938 31.1915312,69.5283938 C31.1915312,69.5283938 27.8585096,72.9877794 33.0088228,67.7050573 Z" id="Combined-Shape" fill="url(#linearGradient-3)"></path>
                        <g id="Group" transform="translate(14.774501, 9.466915)">
                            <path d="M0.991722286,0.0502764957 C0.442835686,0.038073916 0.425696676,0.185263314 0.931348702,0.377941774 C0.931348702,0.377941774 12.6400327,4.49607767 18.1384007,10.9362995 C23.6367687,17.3765214 28.5868466,16.2223672 28.5868466,16.2223672 C33.2431864,16.7035828 40.7788278,16.5138403 45.4325518,15.7963485 L51.3389807,14.8857199 C52.434099,14.7168791 52.5028655,14.2196258 51.4969644,13.779454 C51.4969644,13.779454 36.2014344,7.00723137 28.9670041,4.64778386 C15.1019004,0.125799047 0.991722286,0.0502764957 0.991722286,0.0502764957 Z" id="Combined-Shape" fill="#000000"></path>
                            <path d="M7.51379428,2.65257027 C9.56341127,3.38193952 10.8841684,4.37726422 12.8020017,5.28026312 C14.7198351,6.18326202 17.4205899,8.30405177 19.1468365,9.93205777 C20.6580162,11.3572364 23.1177139,13.0866923 25.7282879,13.8200062 C27.5692927,14.3371471 29.5478571,14.6662089 31.5452494,14.8421932 C32.2774756,14.9067074 32.9711584,14.9466847 33.6115808,14.9667487 C34.043126,14.9802687 34.3924286,14.9832029 34.6448421,14.9802331 C35.6626655,14.9956703 37.1836352,14.9152706 38.1001495,14.8014969 L48.4142981,13.3274513 C47.9138246,13.1517903 41.4282218,10.8542649 38.8600979,9.99730619 C38.4285816,9.85331329 31.9604377,7.5845532 26.7498664,6.21498159 C21.5392951,4.84540997 16.2164751,3.64627006 13.4653678,3.22974232 C11.6312963,2.95205716 9.64743844,2.75966648 7.51379428,2.65257027 Z" id="Path" fill="url(#linearGradient-4)" transform="translate(27.964046, 8.817351) rotate(2.000000) translate(-27.964046, -8.817351) "></path>
                        </g>
                        <g id="Group-2" transform="translate(80.588545, 26.944346)">
                            <path d="M2.07419718,1.63886114 C6.65299458,5.31799544 7.69022805,9.72859444 7.69022805,9.72859444 L7.69022805,9.72859444 L3.29856964,10.4815293 C3.29856964,10.4815293 17.7655786,16.195239 20.2976448,17.3218849 C25.0924941,19.4553589 29.2931449,21.005357 29.2931449,21.005357 C29.8063646,21.1988587 30.1003213,20.9219754 29.8895,20.408273 C29.8895,20.408273 29.8483282,18.684222 24.4054072,13.8462723 C18.9624863,9.00832265 0.888459111,0.396394839 0.888459111,0.396394839 C0.390299365,0.156116822 0.331768446,0.23879278 0.766526559,0.588127628 L2.07419718,1.63886114 Z" id="Path-2" fill="#000000"></path>
                            <g id="Path-3" transform="translate(14.584073, 13.043412) rotate(-1.000000) translate(-14.584073, -13.043412) ">
                                <use fill="#FFFFFF" xlink:href="#path-6"></use>
                                <use fill="url(#linearGradient-5)" xlink:href="#path-6"></use>
                            </g>
                        </g>
                        <g id="Path-4">
                            <use fill="#FFFFFF" xlink:href="#path-7"></use>
                            <use fill="url(#linearGradient-5)" xlink:href="#path-7"></use>
                        </g>
                        <g id="Group-3" transform="translate(106.824887, 68.603285)">
                            <g id="Path-5">
                                <use fill="#FFFFFF" xlink:href="#path-8"></use>
                                <use fill="url(#linearGradient-5)" xlink:href="#path-8"></use>
                            </g>
                            <g id="Path-5">
                                <use fill="#FFFFFF" xlink:href="#path-9"></use>
                                <use fill="url(#linearGradient-5)" xlink:href="#path-9"></use>
                            </g>
                        </g>
                    </g>
                </g>
            </g>
        </g>
    </g>
</svg>